<?xml version="1.0" standalone="no"?>
<!DOCTYPE svg PUBLIC "-//W3C//DTD SVG 20010904//EN"
 "http://www.w3.org/TR/2001/REC-SVG-20010904/DTD/svg10.dtd">
<svg version="1.0" xmlns="http://www.w3.org/2000/svg"
 width="550.000000pt" height="550.000000pt" viewBox="0 0 550.000000 550.000000"
 preserveAspectRatio="xMidYMid meet">

<g transform="translate(0.000000,550.000000) scale(0.100000,-0.100000)"
fill="#000000" stroke="none">
<path d="M0 2750 l0 -2750 2750 0 2750 0 0 2750 0 2750 -2750 0 -2750 0 0
-2750z m2760 1974 c0 -21 -4 -33 -10 -29 -5 3 -10 19 -10 36 0 16 5 29 10 29
6 0 10 -16 10 -36z m-202 -104 c0 -14 -6 -4 -13 25 -7 28 -13 61 -13 75 0 14
6 4 13 -25 7 -27 13 -61 13 -75z m402 45 c-7 -36 -15 -64 -17 -61 -3 3 0 35 7
71 7 36 15 64 17 61 3 -3 0 -35 -7 -71z m-591 -89 c18 -43 30 -80 28 -82 -4
-4 -77 159 -77 172 0 18 19 -16 49 -90z m775 0 c-42 -100 -56 -111 -19 -15 40
101 45 112 51 106 3 -3 -11 -44 -32 -91z m-577 -8 c-3 -8 -6 -5 -6 6 -1 11 2
17 5 13 3 -3 4 -12 1 -19z m-371 -90 c69 -107 81 -127 67 -113 -25 26 -143
205 -135 205 5 0 36 -41 68 -92z m1128 10 c-83 -120 -96 -129 -23 -15 34 53
66 97 71 97 5 0 -17 -37 -48 -82z m-480 -91 l69 -118 -34 -35 -33 -34 -96 0
-96 0 -33 34 -33 34 32 59 c18 32 55 95 83 141 47 80 50 82 61 60 7 -13 43
-76 80 -141z m-779 -67 c55 -55 97 -100 95 -100 -3 0 -50 45 -105 100 -55 55
-97 100 -95 100 3 0 50 -45 105 -100z m1475 97 c0 -1 -46 -47 -102 -102 l-103
-100 100 103 c93 95 105 107 105 99z m-1627 -222 c65 -45 95 -76 40 -39 -93
60 -133 87 -133 91 0 10 27 -5 93 -52z m1767 51 c0 -4 -112 -77 -190 -125 -52
-31 -9 2 81 64 86 59 109 72 109 61z m-1000 -168 c0 -15 -4 -28 -10 -28 -5 0
-10 13 -10 28 0 19 -11 39 -35 62 -19 19 -35 38 -35 44 0 6 20 -10 45 -34 32
-31 45 -52 45 -72z m197 64 c-24 -25 -37 -47 -37 -65 0 -15 -4 -27 -10 -27 -5
0 -10 12 -10 27 0 19 13 41 42 70 23 23 44 40 47 38 2 -3 -12 -22 -32 -43z
m-107 -468 c0 -458 1 -485 18 -480 17 6 160 36 168 36 2 0 4 8 4 18 0 14 14
20 70 30 88 15 90 15 90 -3 0 -15 36 -13 86 6 36 13 179 141 179 160 0 10 31
50 70 89 l69 70 66 -64 65 -63 258 -94 258 -94 64 -82 c36 -46 65 -85 65 -88
0 -3 -9 -1 -21 5 -11 7 -23 10 -25 7 -3 -2 43 -106 102 -230 l107 -227 157
-122 c87 -68 157 -124 156 -125 -1 -2 -71 33 -154 77 l-151 80 -453 2 -453 1
370 8 c204 5 400 10 438 11 l67 3 -178 294 -177 294 -244 89 -244 89 -36 -35
-37 -36 -20 21 -21 20 -162 -135 c-89 -75 -171 -136 -181 -136 -12 0 -20 -8
-22 -22 -2 -18 -19 -28 -78 -50 -41 -15 -76 -28 -77 -28 -2 0 -3 14 -3 31 0
23 -4 30 -14 26 -8 -3 -50 -13 -95 -23 l-81 -17 0 -916 c0 -584 -4 -921 -10
-931 -9 -13 -11 -13 -20 0 -6 10 -10 347 -10 931 l0 916 -81 17 c-45 10 -87
20 -95 23 -10 4 -14 -4 -14 -27 0 -27 -3 -31 -17 -25 -10 3 -46 16 -81 28 -50
18 -62 26 -60 41 2 14 -5 22 -24 27 -15 4 -98 66 -184 139 l-156 132 -21 -21
-21 -21 -37 36 -36 35 -243 -89 -243 -89 -45 -74 c-25 -41 -106 -173 -179
-294 l-134 -220 48 -2 c26 -2 242 -5 478 -7 237 -3 448 -5 470 -7 l40 -2 -34
-4 -34 -5 349 -349 c192 -192 344 -349 339 -349 -6 0 -168 158 -360 350 l-350
350 -487 0 -488 0 -152 -80 c-83 -44 -153 -79 -154 -77 -1 1 69 57 156 125
l158 123 106 226 c59 124 105 228 102 230 -2 3 -14 0 -25 -7 -12 -6 -21 -8
-21 -6 0 3 29 43 64 88 l64 83 258 94 259 94 65 63 66 64 69 -70 c39 -39 70
-79 70 -90 0 -19 142 -146 180 -160 48 -18 85 -20 85 -5 0 18 2 18 90 3 55 -9
70 -16 70 -29 0 -17 8 -20 153 -49 l37 -8 0 484 c0 477 0 484 20 484 20 0 20
-7 20 -486z m-947 346 c42 -18 76 -35 73 -37 -5 -5 -158 57 -171 70 -12 12 -3
9 98 -33z m1952 31 c-12 -11 -167 -72 -172 -67 -4 3 157 74 172 75 5 1 5 -2 0
-8z m-1369 -160 c-10 -11 -24 -17 -31 -15 -22 9 -26 36 -8 56 16 18 17 18 37
-1 19 -20 19 -21 2 -40z m729 -1 l-19 -21 -20 20 c-19 20 -19 21 -1 41 l19 21
20 -20 c19 -20 19 -21 1 -41z m-505 -98 l0 -108 -40 -39 c-22 -21 -40 -34 -40
-29 0 6 14 23 30 39 30 28 30 30 30 137 0 65 4 108 10 108 6 0 10 -43 10 -108z
m260 0 c0 -107 0 -109 30 -137 17 -16 30 -33 30 -39 0 -5 -18 8 -40 29 l-40
39 0 108 c0 65 4 108 10 108 6 0 10 -43 10 -108z m-1125 39 c44 -11 73 -20 65
-20 -20 -1 -172 28 -179 34 -9 10 36 4 114 -14z m2083 14 c-7 -7 -155 -35
-176 -34 -10 1 17 9 58 19 75 18 128 25 118 15z m-1423 -145 l-41 -40 -39 40
-39 40 39 40 39 40 41 -40 40 -40 -40 -40z m730 0 l-41 -40 -39 40 -39 40 39
40 39 40 41 -40 40 -40 -40 -40z m-1278 104 c-3 -3 -12 -4 -19 -1 -8 3 -5 6 6
6 11 1 17 -2 13 -5z m761 -188 c-7 -8 -17 -12 -22 -9 -4 3 -2 9 5 14 22 13 31
11 17 -5z m237 3 c11 -16 1 -19 -13 -3 -7 8 -8 14 -3 14 5 0 13 -5 16 -11z
m-371 -140 c-4 -8 -33 -38 -66 -68 l-59 -55 -64 64 -65 64 67 68 67 68 63 -63
c42 -42 61 -68 57 -78z m680 -57 l-63 -67 -68 67 -68 68 65 65 64 65 67 -66
66 -65 -63 -67z m-201 0 c53 -52 95 -97 93 -100 -7 -6 -296 269 -296 281 0 11
61 -44 203 -181z m-403 38 c-80 -76 -149 -139 -155 -139 -5 0 55 63 134 139
79 77 149 140 155 140 6 0 -54 -63 -134 -140z m-12 86 c-7 -8 -15 -12 -17 -11
-5 6 10 25 20 25 5 0 4 -6 -3 -14z m377 3 c11 -16 1 -19 -13 -3 -7 8 -8 14 -3
14 5 0 13 -5 16 -11z m-306 -181 c-71 -66 -94 -77 -135 -61 -13 5 6 27 92 109
l109 102 3 -42 c4 -40 1 -43 -69 -108z m262 50 c110 -103 117 -118 59 -118
-17 0 -49 22 -98 68 -69 62 -74 70 -75 110 -1 23 -1 42 1 42 2 0 53 -46 113
-102z m-211 -133 c0 -30 -4 -55 -10 -55 -5 0 -10 25 -10 55 0 30 5 55 10 55 6
0 10 -25 10 -55z m130 6 c0 -28 -4 -53 -10 -56 -6 -4 -10 15 -10 49 0 31 5 56
10 56 6 0 10 -22 10 -49z m-775 -371 l-180 -180 70 -70 c38 -38 65 -70 59 -70
-5 0 -41 32 -79 70 l-70 70 185 185 c101 101 186 182 189 179 3 -2 -76 -86
-174 -184z m1540 -250 c-38 -38 -74 -70 -79 -70 -6 0 21 32 59 70 l70 70 -178
178 c-97 97 -177 182 -177 187 0 5 84 -74 187 -177 l188 -188 -70 -70z m-1285
360 c0 -4 -64 -71 -142 -149 l-142 -141 67 -67 c37 -36 67 -67 67 -69 0 -2
-18 -4 -41 -4 -37 0 -47 6 -112 70 l-71 71 163 163 c161 161 165 164 188 149
12 -8 23 -19 23 -23z m1110 -125 l165 -165 -70 -70 c-67 -66 -72 -69 -118 -70
l-49 0 73 71 73 70 -146 144 -145 143 21 21 c11 12 23 21 26 21 3 0 79 -74
170 -165z m-1071 -47 c-1 -90 -3 -104 -10 -68 -11 65 -11 180 1 180 6 0 10
-43 9 -112z m50 -10 c-1 -96 -3 -113 -10 -78 -11 66 -11 200 1 200 6 0 10 -47
9 -122z m731 60 c0 -74 -5 -73 -14 5 -4 36 -2 57 4 57 6 0 10 -27 10 -62z m44
-55 c-3 -65 -8 -120 -10 -122 -2 -2 -4 50 -4 117 0 80 4 122 11 122 7 0 8 -36
3 -117z m-725 -5 c-1 -90 -3 -104 -10 -68 -11 65 -11 180 1 180 6 0 10 -43 9
-112z m150 30 c-1 -71 -2 -77 -10 -43 -11 56 -11 125 1 125 6 0 10 -33 9 -82z
m478 -100 c-2 -35 -3 -7 -3 62 0 69 1 97 3 63 2 -35 2 -91 0 -125z m-578 65
c-1 -91 -3 -100 -9 -58 -12 73 -12 165 0 165 6 0 9 -42 9 -107z m150 35 c-1
-55 -3 -66 -9 -43 -11 45 -11 115 0 115 6 0 10 -30 9 -72z m223 10 c-5 -113
-9 -125 -10 -30 -1 50 1 92 6 92 4 0 6 -28 4 -62z m155 -120 c-2 -35 -3 -7 -3
62 0 69 1 97 3 63 2 -35 2 -91 0 -125z m-328 115 c0 -42 -3 -52 -9 -38 -12 28
-12 95 0 95 6 0 10 -25 9 -57z m123 -5 c-5 -113 -9 -125 -10 -30 -1 50 1 92 6
92 4 0 6 -28 4 -62z m100 -10 c-5 -132 -9 -145 -10 -35 -1 59 1 107 6 107 4 0
6 -33 4 -72z m55 -115 c-2 -37 -3 -9 -3 62 0 72 1 102 3 68 2 -34 2 -93 0
-130z m-428 80 c-2 -86 -3 -92 -9 -48 -12 73 -12 145 0 145 6 0 9 -38 9 -97z
m-250 5 c-1 -60 -4 -75 -9 -53 -11 45 -11 135 0 135 6 0 10 -33 9 -82z m925
-10 c-4 -51 -8 -95 -10 -97 -2 -2 -4 39 -4 92 0 60 4 97 10 97 7 0 8 -31 4
-92z m-975 -25 c-1 -50 -3 -61 -9 -43 -12 36 -12 110 0 110 6 0 10 -29 9 -67z
m1025 0 c-9 -91 -14 -92 -14 -5 0 43 4 72 10 72 7 0 8 -24 4 -67z m-1075 -25
c0 -33 -2 -38 -9 -23 -12 28 -12 65 0 65 6 0 10 -19 9 -42z m1124 0 c-8 -59
-13 -61 -13 -5 0 26 4 47 9 47 5 0 7 -19 4 -42z m-1173 -24 c0 -8 -4 -12 -10
-9 -5 3 -10 10 -10 16 0 5 5 9 10 9 6 0 10 -7 10 -16z m1223 -4 c-3 -11 -7
-20 -9 -20 -2 0 -4 9 -4 20 0 11 4 20 9 20 5 0 7 -9 4 -20z m-1140 -167 c-7
-2 -19 -2 -25 0 -7 3 -2 5 12 5 14 0 19 -2 13 -5z m222 -272 c263 -263 269
-270 269 -310 1 -22 -1 -41 -4 -41 -8 0 -610 605 -610 613 0 4 17 7 38 7 37 0
49 -11 307 -269z m955 263 c0 -6 -605 -614 -611 -614 -2 0 -2 21 0 48 3 47 3
47 267 310 257 256 264 262 304 262 22 0 40 -3 40 -6z m-255 -344 c-192 -192
-354 -350 -360 -350 -5 0 148 158 340 350 192 193 354 350 360 350 5 0 -148
-157 -340 -350z m393 43 c-34 -35 -65 -63 -68 -63 -4 0 -34 28 -68 62 l-61 62
62 66 62 66 67 -65 68 -65 -62 -63z m-1409 125 l61 -62 -65 -66 -65 -65 -65
65 -65 64 62 63 c34 35 65 63 69 63 4 0 34 -28 68 -62z m109 -180 l-3 -63 -62
-3 c-38 -2 -63 1 -63 7 0 6 23 9 55 8 l55 -3 0 58 c0 34 4 58 10 58 7 0 10
-24 8 -62z m1042 4 l0 -59 55 4 c34 2 55 -1 55 -7 0 -7 -23 -10 -62 -8 l-63 3
-3 63 c-2 38 1 62 8 62 6 0 10 -24 10 -58z m-1020 -31 l0 -59 -60 -4 c-33 -1
-60 0 -60 5 0 4 25 7 55 7 l55 0 0 55 c0 30 2 55 5 55 3 0 5 -27 5 -59z m1045
-51 c30 0 55 -3 55 -7 0 -5 -27 -6 -60 -5 l-60 4 2 61 2 62 3 -57 4 -58 54 0z
m-1015 20 l0 -60 -62 2 -63 2 58 3 57 4 0 54 c0 30 2 55 5 55 3 0 5 -27 5 -60z
m993 -53 l62 -3 -67 -2 -68 -2 2 63 2 62 3 -57 4 -57 62 -4z m-790 -204 c94
-95 168 -173 163 -173 -5 0 -85 77 -179 170 l-170 170 -61 2 -61 1 60 6 60 6
2 50 c2 76 6 77 10 5 l4 -65 172 -172z m701 235 l1 -53 60 -6 60 -6 -62 -1
-63 -2 -157 -158 c-87 -86 -167 -164 -178 -171 -11 -8 58 64 153 160 l172 174
0 64 c0 76 12 75 14 -1z m-1089 -98 l-39 -40 -42 41 -41 41 41 38 41 39 40
-39 39 -40 -39 -40z m1401 2 l-40 -42 -40 40 -40 40 39 40 38 39 42 -37 42
-37 -41 -43z m-1086 48 c0 -5 -4 -10 -10 -10 -5 0 -10 5 -10 10 0 6 5 10 10
10 6 0 10 -4 10 -10z m680 0 c0 -5 -4 -10 -10 -10 -5 0 -10 5 -10 10 0 6 5 10
10 10 6 0 10 -4 10 -10z m-640 -50 c0 -5 -2 -10 -4 -10 -3 0 -8 5 -11 10 -3 6
-1 10 4 10 6 0 11 -4 11 -10z m50 -40 c0 -5 -4 -10 -10 -10 -5 0 -10 5 -10 10
0 6 5 10 10 10 6 0 10 -4 10 -10z m500 0 c0 -5 -4 -10 -10 -10 -5 0 -10 5 -10
10 0 6 5 10 10 10 6 0 10 -4 10 -10z m-450 -44 c0 -3 -4 -8 -10 -11 -5 -3 -10
-1 -10 4 0 6 5 11 10 11 6 0 10 -2 10 -4z m-475 -26 c17 -19 17 -21 0 -40
l-18 -20 -24 22 c-21 20 -22 23 -6 40 20 23 26 23 48 -2z m1408 2 c16 -17 15
-20 -6 -40 l-24 -22 -18 20 c-17 19 -17 21 0 40 22 25 28 25 48 2z m-848 -72
c3 -5 1 -10 -4 -10 -6 0 -11 5 -11 10 0 6 2 10 4 10 3 0 8 -4 11 -10z m225 0
c0 -5 -4 -10 -10 -10 -5 0 -10 5 -10 10 0 6 5 10 10 10 6 0 10 -4 10 -10z
m-190 -90 l0 -60 -62 2 -63 1 55 6 55 6 3 53 c4 71 12 66 12 -8z m208 -48 c28
-2 52 -6 52 -10 0 -4 -27 -5 -60 -4 l-60 4 2 61 1 62 6 -55 6 -55 53 -3z
m-634 9 c3 -5 -36 -39 -87 -77 -50 -37 -128 -94 -172 -127 -104 -78 -113 -84
-100 -70 11 12 347 283 351 283 2 0 5 -4 8 -9z m1174 -128 c248 -198 223 -183
-156 94 -18 14 -30 29 -26 34 7 12 -1 18 182 -128z m-726 -6 c-6 -7 -12 -39
-14 -70 -3 -55 -5 -60 -58 -111 -52 -51 -58 -54 -119 -60 l-64 -6 6 66 c5 64
7 68 58 120 52 53 55 54 110 54 38 0 61 5 69 15 7 9 15 13 18 10 3 -2 0 -10
-6 -18z m179 -7 c53 0 56 -2 108 -54 51 -52 53 -56 58 -119 l6 -65 -64 5 c-62
5 -66 6 -122 63 -57 58 -57 59 -53 109 2 35 -1 54 -10 62 -8 6 -14 16 -14 22
0 5 8 3 18 -6 13 -12 36 -17 73 -17z m-622 -63 c-2 -2 -44 -32 -94 -67 -49
-35 -135 -98 -190 -138 -141 -105 -99 -67 100 92 106 85 173 132 179 126 5 -5
8 -11 5 -13z m1194 -135 c92 -74 167 -136 167 -138 0 -2 -69 47 -152 109 -84
62 -169 124 -188 137 -19 13 -37 25 -39 26 -1 2 0 8 4 13 8 14 -4 22 208 -147z
m-1573 54 c0 -2 -8 -10 -17 -17 -16 -13 -17 -12 -4 4 13 16 21 21 21 13z
m1761 -13 c13 -16 12 -17 -3 -4 -17 13 -22 21 -14 21 2 0 10 -8 17 -17z
m-1495 -177 c-61 -45 -147 -108 -191 -140 -118 -87 -81 -54 115 102 99 79 178
135 181 129 4 -5 -43 -46 -105 -91z m1287 -39 c149 -120 194 -163 90 -85 -32
23 -108 79 -169 123 -61 45 -109 86 -106 93 4 14 -7 23 185 -131z m-735 91
c-8 -12 -14 -44 -13 -70 1 -45 -2 -50 -54 -102 -53 -52 -60 -55 -120 -62 l-64
-7 5 67 c5 66 7 69 59 122 52 53 55 54 110 54 38 0 61 5 69 15 19 23 24 11 8
-17z m183 2 c53 0 56 -2 108 -54 52 -52 53 -56 59 -121 l5 -68 -64 7 c-61 7
-67 10 -121 63 -56 55 -57 57 -56 110 1 30 -3 58 -10 65 -19 19 -14 33 6 15
13 -12 36 -17 73 -17z m-1011 -64 c0 -2 -8 -10 -17 -17 -16 -13 -17 -12 -4 4
13 16 21 21 21 13z m1781 -13 c13 -16 12 -17 -3 -4 -10 7 -18 15 -18 17 0 8 8
3 21 -13z m-1434 -117 c-23 -16 -112 -81 -197 -144 -193 -142 -183 -131 46 52
107 86 182 139 186 133 4 -6 -12 -24 -35 -41z m1423 -257 c19 -16 -46 30 -145
103 -100 73 -197 144 -217 157 -20 14 -34 30 -31 37 4 11 234 -163 393 -297z
m-29 214 c13 -16 12 -17 -3 -4 -10 7 -18 15 -18 17 0 8 8 3 21 -13z m-1741
-17 c0 -2 -8 -10 -17 -17 -16 -13 -17 -12 -4 4 13 16 21 21 21 13z m1781 -13
c13 -16 12 -17 -3 -4 -17 13 -22 21 -14 21 2 0 10 -8 17 -17z m-1791 -187 c0
-2 -8 -10 -17 -17 -16 -13 -17 -12 -4 4 13 16 21 21 21 13z"/>
<path d="M2711 4433 c-18 -32 -36 -65 -41 -73 -41 -65 -43 -72 -22 -93 23 -22
82 -34 82 -16 0 8 5 7 15 -1 11 -9 15 -9 15 -1 0 7 5 9 10 6 28 -17 58 -14 80
10 l23 24 -26 41 c-15 22 -27 42 -27 46 0 11 -64 114 -71 114 -4 0 -21 -26
-38 -57z m73 -12 l27 -50 -28 -50 c-15 -28 -30 -51 -33 -51 -3 0 -17 23 -32
52 l-28 51 27 49 c14 26 29 48 33 48 4 0 19 -22 34 -49z m-84 -106 c0 -5 -5
-3 -10 5 -5 8 -10 20 -10 25 0 6 5 3 10 -5 5 -8 10 -19 10 -25z m111 8 c-12
-20 -14 -14 -5 12 4 9 9 14 11 11 3 -2 0 -13 -6 -23z"/>
<path d="M2726 4409 c-17 -30 -17 -32 -1 -70 10 -21 21 -39 25 -39 4 0 15 17
24 39 17 36 17 41 2 70 -21 39 -27 39 -50 0z"/>
<path d="M1914 3516 l-59 -56 60 -60 60 -60 57 57 c32 32 54 62 50 68 -4 6
-30 32 -58 58 l-51 48 -59 -55z m102 -23 l32 -38 -36 -38 -36 -37 -38 37 -38
37 37 38 c20 21 39 38 41 38 3 0 20 -17 38 -37z"/>
<path d="M1948 3483 l-27 -28 26 -23 26 -23 26 25 26 26 -26 25 -25 25 -26
-27z"/>
<path d="M3462 3513 l-53 -56 58 -59 58 -58 58 58 59 59 -53 57 c-30 31 -58
56 -64 56 -5 0 -34 -26 -63 -57z m100 -90 l-36 -34 -35 35 -35 36 34 35 34 35
37 -36 38 -37 -37 -34z"/>
<path d="M3498 3483 l-26 -26 30 -25 30 -25 24 24 24 25 -28 27 -28 27 -26
-27z"/>
<path d="M1576 3370 c-240 -88 -259 -99 -295 -161 -19 -31 2 -40 50 -22 56 21
54 19 38 40 -13 17 -12 17 6 2 19 -15 55 -15 55 0 0 4 -6 13 -12 20 -9 9 -4 8
12 -2 15 -9 33 -12 44 -8 14 5 16 10 8 15 -7 4 -12 12 -12 18 0 7 7 5 18 -4
22 -18 56 -12 48 9 -5 13 -4 13 8 4 13 -11 46 -6 46 8 0 4 -6 13 -12 21 -7 8
-4 7 8 -3 20 -16 23 -16 67 0 39 14 44 19 34 32 -10 14 -10 14 5 3 23 -18 64
-6 47 14 -14 17 2 19 18 3 17 -17 44 -3 36 18 -6 16 -5 16 10 5 13 -11 22 -11
52 -1 l35 13 -32 33 c-18 18 -34 33 -37 32 -4 0 -113 -40 -245 -89z m65 -47
c13 -16 12 -17 -3 -4 -10 7 -18 15 -18 17 0 8 8 3 21 -13z"/>
<path d="M3641 3426 l-33 -34 33 -11 32 -11 -19 22 c-13 16 -9 15 11 -4 17
-15 50 -34 74 -43 41 -14 43 -14 30 3 -7 9 -2 7 12 -5 13 -12 44 -29 68 -38
39 -13 42 -13 31 0 -11 13 -10 14 4 9 9 -3 16 -10 16 -16 0 -9 44 -30 90 -42
24 -7 24 -6 6 8 -11 9 -16 16 -12 16 5 0 24 -13 43 -30 18 -16 40 -30 48 -30
7 0 22 -3 32 -7 17 -6 17 -5 -2 18 -13 16 -9 14 15 -7 39 -35 99 -59 112 -46
5 5 1 15 -8 23 -15 12 -17 12 -9 0 5 -9 4 -12 -3 -7 -6 4 -9 12 -7 19 2 7 -6
25 -19 40 -18 23 -70 46 -252 113 -125 46 -235 86 -244 89 -10 3 -29 -8 -49
-29z"/>
<path d="M2061 3396 l-32 -33 138 -116 c132 -111 182 -143 115 -74 -38 39 -43
61 -7 27 28 -27 29 -25 14 34 -9 36 -23 53 -82 102 -127 105 -109 98 -146 60z"/>
<path d="M3315 3354 c-71 -59 -92 -82 -102 -113 -10 -35 -9 -41 8 -57 15 -14
21 -15 34 -4 14 12 14 15 -2 33 -18 19 -17 20 4 8 12 -6 29 -8 38 -5 14 6 14
8 -1 25 -19 21 -6 27 14 7 9 -9 15 -9 24 0 10 10 10 17 -1 35 -14 22 -14 22 7
3 21 -18 22 -18 56 12 32 28 33 31 18 47 -16 16 -16 16 5 4 19 -12 25 -11 38
2 14 13 12 18 -17 46 l-33 32 -90 -75z m66 -41 c13 -16 12 -17 -3 -4 -17 13
-22 21 -14 21 2 0 10 -8 17 -17z"/>
<path d="M2410 3270 c0 -4 25 -11 55 -17 30 -5 55 -7 55 -3 0 4 -25 11 -55 17
-30 5 -55 7 -55 3z"/>
<path d="M3033 3267 c-29 -5 -53 -13 -53 -17 0 -3 25 -2 55 3 30 6 55 14 55
19 0 4 -1 7 -2 7 -2 -1 -27 -6 -55 -12z"/>
<path d="M2300 3263 c1 -33 33 -119 54 -144 l26 -31 0 85 0 85 -31 6 c-41 8
-49 8 -49 -1z"/>
<path d="M3140 3261 c-23 -6 -24 -11 -22 -60 1 -34 8 -61 18 -73 25 -26 37
-22 32 11 -2 17 -1 28 3 26 6 -4 29 70 29 94 0 12 -22 13 -60 2z"/>
<path d="M2410 3166 c0 -81 1 -86 22 -86 21 0 21 0 2 23 -14 17 -12 16 11 -4
56 -50 101 -46 58 5 -17 20 -17 20 0 7 16 -12 17 -9 17 52 l0 66 -37 6 c-21 4
-46 9 -55 12 -16 4 -18 -5 -18 -81z"/>
<path d="M3023 3237 l-43 -10 0 -84 c0 -74 2 -84 16 -79 9 3 20 6 25 6 6 0 8
4 5 8 -2 4 12 6 32 4 36 -4 37 -4 20 15 -22 24 -24 40 -3 23 13 -11 15 -3 15
59 0 78 3 75 -67 58z"/>
<path d="M2540 3219 c3 -2 47 -44 98 -94 80 -78 92 -86 92 -65 0 39 -114 150
-159 157 -20 3 -34 4 -31 2z"/>
<path d="M2935 3200 c10 -11 20 -20 22 -20 1 0 3 9 3 20 0 14 -7 20 -22 20
-20 0 -21 -1 -3 -20z"/>
<path d="M2860 3201 c0 -5 21 -28 48 -52 45 -42 47 -43 50 -20 5 30 -43 81
-75 81 -13 0 -23 -4 -23 -9z"/>
<path d="M2540 3174 c0 -24 12 -42 58 -86 48 -46 117 -86 128 -75 2 2 -39 45
-91 97 -92 92 -95 94 -95 64z"/>
<path d="M2680 3154 l45 -45 3 28 c4 33 -27 63 -66 63 -25 0 -25 -1 18 -46z"/>
<path d="M2806 3192 c-8 -13 130 -145 143 -138 18 11 14 18 -47 84 -54 57 -83
74 -96 54z"/>
<path d="M1365 3180 c-3 -5 -15 -10 -25 -10 -49 0 -66 -21 -130 -158 -35 -75
-83 -179 -107 -229 -25 -51 -42 -97 -38 -103 4 -6 2 -9 -2 -8 -9 3 -204 -144
-199 -149 5 -5 164 82 162 89 0 4 9 14 20 22 12 9 27 30 35 48 7 18 19 39 27
47 7 7 11 20 8 28 -3 8 -2 11 4 8 5 -3 14 4 20 15 6 11 7 20 3 20 -4 0 0 5 10
11 9 5 17 19 17 30 0 11 4 18 9 15 12 -8 22 20 15 39 -4 11 -2 13 9 10 16 -7
31 20 20 37 -3 7 -1 8 5 4 17 -10 34 28 19 43 -9 10 -8 11 5 6 23 -9 35 20 17
43 -11 14 -11 15 1 5 8 -7 17 -13 21 -13 14 0 19 33 7 48 -11 13 -10 15 6 9
25 -10 38 11 24 37 -10 19 -9 19 5 8 13 -11 17 -10 27 7 6 12 7 21 3 21 -4 0
2 7 13 15 10 8 14 15 7 15 -6 0 -15 -4 -18 -10z"/>
<path d="M2770 3169 c0 -17 17 -41 53 -77 47 -46 87 -67 87 -44 0 4 -31 39
-70 77 -63 62 -70 67 -70 44z"/>
<path d="M3197 3168 c-8 -29 0 -36 19 -17 13 14 13 17 1 28 -12 9 -16 7 -20
-11z"/>
<path d="M4123 3167 c9 -14 75 -122 145 -239 196 -323 192 -318 234 -339 21
-11 38 -16 38 -13 0 4 8 0 18 -8 9 -9 28 -21 42 -27 20 -10 18 -6 -10 19 -19
17 -48 40 -65 52 l-30 22 25 -30 c13 -16 2 -6 -26 22 -29 29 -58 71 -68 98
-10 27 -33 64 -50 84 -17 20 -25 33 -18 28 6 -4 12 -4 12 -1 0 13 -44 92 -63
113 -11 12 -15 22 -9 22 16 0 -31 95 -67 135 -25 29 -25 29 -1 10 l24 -20 -15
25 c-15 24 -59 51 -109 65 -24 8 -24 7 -7 -18z"/>
<path d="M1255 3170 c-3 -5 -1 -10 4 -10 6 0 11 5 11 10 0 6 -2 10 -4 10 -3 0
-8 -4 -11 -10z"/>
<path d="M3117 3110 c3 -11 9 -17 14 -15 10 7 1 35 -11 35 -5 0 -6 -9 -3 -20z"/>
<path d="M2540 3096 c0 -13 6 -28 13 -33 13 -11 77 -34 77 -29 0 5 -82 86 -86
86 -2 0 -4 -11 -4 -24z"/>
<path d="M2770 3094 c0 -40 40 -81 66 -66 15 8 12 14 -24 53 l-41 44 -1 -31z"/>
<path d="M2418 3058 c6 -6 29 -19 51 -29 39 -17 40 -17 29 1 -7 10 -30 23 -51
29 -28 7 -36 6 -29 -1z"/>
<path d="M3075 3060 c-3 -5 -1 -10 4 -10 6 0 11 5 11 10 0 6 -2 10 -4 10 -3 0
-8 -4 -11 -10z"/>
<path d="M3028 3053 c-10 -3 -18 -8 -18 -13 0 -5 -7 -7 -15 -4 -9 4 -15 0 -15
-9 0 -14 4 -14 38 0 20 8 38 16 40 18 7 6 -14 11 -30 8z"/>
<path d="M2770 3024 c0 -8 5 -12 10 -9 6 4 8 11 5 16 -9 14 -15 11 -15 -7z"/>
<path d="M2365 3930 c-4 -6 -1 -17 5 -26 10 -11 16 -12 26 -3 11 9 11 15 3 25
-14 17 -25 18 -34 4z"/>
<path d="M3094 3929 c-3 -6 0 -17 8 -25 13 -13 16 -13 27 0 7 8 10 20 6 26 -8
13 -32 13 -41 -1z"/>
<path d="M2355 3780 l-29 -30 29 -30 29 -30 30 30 31 30 -31 30 -30 30 -29
-30z"/>
<path d="M3085 3780 l-29 -30 29 -30 29 -30 30 30 31 30 -31 30 -30 30 -29
-30z"/>
<path d="M2330 3544 l-43 -46 44 -46 c24 -26 45 -49 47 -51 1 -3 25 17 52 44
l50 49 -47 48 c-26 26 -50 48 -53 48 -4 0 -26 -21 -50 -46z m83 -76 l-27 -28
-28 27 -28 27 27 28 27 28 28 -27 28 -27 -27 -28z"/>
<path d="M3067 3542 l-47 -48 48 -47 48 -47 49 50 49 50 -44 45 c-24 25 -47
45 -50 45 -3 0 -27 -22 -53 -48z m83 -17 l24 -25 -29 -30 -29 -30 -28 27 -28
27 27 28 c15 15 30 28 33 28 4 0 17 -11 30 -25z"/>
<path d="M3417 2392 l-47 -48 50 -49 50 -49 45 44 c25 24 45 49 45 54 0 11
-80 96 -90 96 -3 0 -27 -22 -53 -48z"/>
<path d="M2012 2396 c-23 -25 -42 -49 -42 -53 0 -5 20 -29 45 -53 l45 -44 50
49 50 49 -47 48 c-26 26 -50 48 -53 48 -4 0 -25 -20 -48 -44z"/>
<path d="M2035 2120 l-29 -30 29 -30 29 -30 30 30 31 30 -31 30 -30 30 -29
-30z"/>
<path d="M3435 2120 l-29 -30 24 -25 c29 -31 41 -31 70 0 l24 26 -30 30 -30
29 -29 -30z"/>
<path d="M2050 1935 c-20 -24 4 -45 26 -24 13 14 13 17 1 27 -11 10 -17 9 -27
-3z"/>
<path d="M3452 1937 c-10 -11 -9 -17 3 -27 24 -20 45 4 24 26 -14 13 -17 13
-27 1z"/>
<path d="M2564 1577 c-26 -14 -15 -27 24 -27 34 0 62 14 62 30 0 8 -70 6 -86
-3z"/>
<path d="M2653 1559 c-7 -7 -13 -33 -13 -58 0 -41 1 -44 16 -30 10 11 14 30
12 58 -2 34 -5 40 -15 30z"/>
<path d="M2505 1520 c-18 -20 -17 -20 27 -20 32 0 50 6 63 20 18 20 17 20 -27
20 -32 0 -50 -6 -63 -20z"/>
<path d="M2600 1505 c-15 -18 -23 -95 -10 -95 20 0 35 38 30 74 -5 37 -6 38
-20 21z"/>
<path d="M2475 1481 c-3 -2 -5 -10 -5 -18 0 -18 54 -17 69 1 9 11 5 15 -24 18
-20 2 -38 2 -40 -1z"/>
<path d="M2547 1452 c-24 -26 -22 -62 3 -62 17 0 20 7 20 40 0 46 -1 47 -23
22z"/>
<path d="M2470 1414 c0 -14 3 -14 15 -4 8 7 15 14 15 16 0 2 -7 4 -15 4 -8 0
-15 -7 -15 -16z"/>
<path d="M2495 1400 c-18 -19 -17 -20 3 -20 15 0 22 6 22 20 0 11 -2 20 -3 20
-2 0 -12 -9 -22 -20z"/>
<path d="M2850 1580 c0 -16 28 -30 62 -30 38 0 49 12 26 27 -15 8 -88 11 -88
3z"/>
<path d="M2830 1527 c0 -27 6 -49 15 -57 13 -11 15 -6 15 33 0 27 -6 49 -15
57 -13 11 -15 6 -15 -33z"/>
<path d="M2905 1520 c13 -14 31 -20 63 -20 44 0 45 0 27 20 -13 14 -31 20 -63
20 -44 0 -45 0 -27 -20z"/>
<path d="M2880 1479 c0 -41 13 -69 31 -69 14 0 2 81 -14 98 -16 15 -17 13 -17
-29z"/>
<path d="M2960 1465 c7 -8 25 -15 41 -15 19 0 29 5 29 15 0 11 -11 15 -41 15
-36 0 -40 -2 -29 -15z"/>
<path d="M2930 1432 c0 -23 2 -42 4 -42 2 0 11 -3 20 -6 24 -9 21 48 -4 71
-20 18 -20 17 -20 -23z"/>
<path d="M3000 1426 c0 -2 7 -9 15 -16 12 -10 15 -10 15 4 0 9 -7 16 -15 16
-8 0 -15 -2 -15 -4z"/>
<path d="M2980 1400 c0 -14 7 -20 22 -20 20 0 21 1 3 20 -10 11 -20 20 -22 20
-1 0 -3 -9 -3 -20z"/>
<path d="M2563 1293 c-26 -10 -12 -23 26 -23 22 0 44 6 51 15 11 13 7 15 -26
14 -22 0 -45 -3 -51 -6z"/>
<path d="M2653 1279 c-7 -7 -13 -33 -13 -58 0 -41 1 -44 16 -30 10 11 14 30
12 58 -2 34 -5 40 -15 30z"/>
<path d="M2510 1240 l-23 -20 45 0 c32 0 50 6 63 20 18 20 17 20 -22 20 -26 0
-48 -7 -63 -20z"/>
<path d="M2601 1226 c-8 -10 -16 -38 -17 -64 l-3 -46 20 21 c15 15 20 30 17
63 -3 39 -4 42 -17 26z"/>
<path d="M2470 1182 c0 -24 43 -23 67 1 16 16 15 17 -25 17 -34 0 -42 -3 -42
-18z"/>
<path d="M2547 1172 c-25 -27 -22 -72 3 -72 17 0 20 7 20 45 0 25 -2 45 -3 45
-2 0 -11 -8 -20 -18z"/>
<path d="M2467 1129 c-5 -20 -5 -20 14 -3 23 20 23 24 5 24 -7 0 -16 -9 -19
-21z"/>
<path d="M2495 1120 c-18 -19 -17 -20 3 -20 15 0 22 6 22 20 0 11 -2 20 -3 20
-2 0 -12 -9 -22 -20z"/>
<path d="M2859 1286 c17 -20 95 -22 89 -3 -3 7 -26 13 -53 15 -43 3 -47 1 -36
-12z"/>
<path d="M2830 1247 c0 -27 6 -49 15 -57 13 -11 15 -6 15 33 0 27 -6 49 -15
57 -13 11 -15 6 -15 -33z"/>
<path d="M2906 1239 c12 -14 30 -19 63 -19 l46 1 -23 19 c-14 12 -37 19 -63
18 -38 0 -39 -1 -23 -19z"/>
<path d="M2880 1198 c0 -32 6 -50 19 -62 19 -18 20 -17 19 23 0 25 -8 49 -19
62 l-19 22 0 -45z"/>
<path d="M2960 1186 c8 -8 27 -17 43 -20 22 -4 27 -1 27 15 0 16 -7 19 -42 19
-37 0 -40 -2 -28 -14z"/>
<path d="M2930 1148 c0 -41 3 -48 20 -48 27 0 27 40 0 71 l-19 24 -1 -47z"/>
<path d="M3015 1130 c10 -11 19 -20 21 -20 1 0 0 9 -3 20 -3 11 -12 20 -21 20
-13 0 -12 -3 3 -20z"/>
<path d="M2980 1115 c0 -9 9 -15 21 -15 18 0 19 2 9 15 -7 8 -16 15 -21 15 -5
0 -9 -7 -9 -15z"/>
</g>
</svg>
